<mxfile host="app.diagrams.net" modified="2024-01-24T13:01:13.648Z" agent="Mozilla/5.0 (Windows NT 10.0; Win64; x64) AppleWebKit/537.36 (KHTML, like Gecko) Chrome/120.0.0.0 Safari/537.36" etag="VS86-8tYvKYPYXSTSAEy" version="22.1.21" type="github">
  <diagram name="第 1 页" id="R7lRiUveevS0r1VpLNnj">
    <mxGraphModel dx="1687" dy="868" grid="1" gridSize="10" guides="1" tooltips="1" connect="1" arrows="1" fold="1" page="1" pageScale="1" pageWidth="827" pageHeight="1169" math="0" shadow="0">
      <root>
        <mxCell id="0" />
        <mxCell id="1" parent="0" />
        <mxCell id="183rZbsKnCli-wK0PXnV-64" value="" style="rounded=0;whiteSpace=wrap;html=1;labelBackgroundColor=none;fontSize=15;fillColor=default;strokeColor=#d6b656;strokeWidth=2;fontColor=default;" vertex="1" parent="1">
          <mxGeometry x="20" y="110" width="870" height="560" as="geometry" />
        </mxCell>
        <mxCell id="183rZbsKnCli-wK0PXnV-3" value="" style="edgeStyle=orthogonalEdgeStyle;rounded=0;orthogonalLoop=1;jettySize=auto;html=1;fontSize=15;labelBackgroundColor=none;fontColor=default;strokeColor=#09555B;" edge="1" parent="1" source="183rZbsKnCli-wK0PXnV-1" target="183rZbsKnCli-wK0PXnV-2">
          <mxGeometry relative="1" as="geometry" />
        </mxCell>
        <mxCell id="183rZbsKnCli-wK0PXnV-1" value="卫星资源配置场景" style="rounded=0;whiteSpace=wrap;html=1;fontSize=15;strokeWidth=2;labelBackgroundColor=none;fillColor=default;strokeColor=#d6b656;" vertex="1" parent="1">
          <mxGeometry x="980" y="85" width="150" height="50" as="geometry" />
        </mxCell>
        <mxCell id="183rZbsKnCli-wK0PXnV-5" value="" style="edgeStyle=orthogonalEdgeStyle;rounded=0;orthogonalLoop=1;jettySize=auto;html=1;fontSize=15;labelBackgroundColor=none;fontColor=default;strokeColor=#09555B;" edge="1" parent="1" source="183rZbsKnCli-wK0PXnV-2" target="183rZbsKnCli-wK0PXnV-4">
          <mxGeometry relative="1" as="geometry" />
        </mxCell>
        <mxCell id="183rZbsKnCli-wK0PXnV-2" value="资源冲突度分析" style="whiteSpace=wrap;html=1;rounded=0;fontSize=15;strokeWidth=2;labelBackgroundColor=none;fillColor=default;strokeColor=#d6b656;" vertex="1" parent="1">
          <mxGeometry x="980" y="225" width="150" height="50" as="geometry" />
        </mxCell>
        <mxCell id="183rZbsKnCli-wK0PXnV-7" value="" style="edgeStyle=orthogonalEdgeStyle;rounded=0;orthogonalLoop=1;jettySize=auto;html=1;fontSize=15;labelBackgroundColor=none;fontColor=default;strokeColor=#09555B;" edge="1" parent="1" source="183rZbsKnCli-wK0PXnV-4" target="183rZbsKnCli-wK0PXnV-6">
          <mxGeometry relative="1" as="geometry" />
        </mxCell>
        <mxCell id="183rZbsKnCli-wK0PXnV-4" value="任务优先级分析" style="whiteSpace=wrap;html=1;rounded=0;fontSize=15;strokeWidth=2;labelBackgroundColor=none;fillColor=default;strokeColor=#d6b656;" vertex="1" parent="1">
          <mxGeometry x="980" y="365" width="150" height="50" as="geometry" />
        </mxCell>
        <mxCell id="183rZbsKnCli-wK0PXnV-9" value="" style="edgeStyle=orthogonalEdgeStyle;rounded=0;orthogonalLoop=1;jettySize=auto;html=1;fontSize=15;labelBackgroundColor=none;fontColor=default;strokeColor=#09555B;" edge="1" parent="1" source="183rZbsKnCli-wK0PXnV-6" target="183rZbsKnCli-wK0PXnV-8">
          <mxGeometry relative="1" as="geometry" />
        </mxCell>
        <mxCell id="183rZbsKnCli-wK0PXnV-6" value="卫星任务规划" style="whiteSpace=wrap;html=1;rounded=0;fontSize=15;strokeWidth=2;labelBackgroundColor=none;fillColor=default;strokeColor=#d6b656;" vertex="1" parent="1">
          <mxGeometry x="980" y="505" width="150" height="50" as="geometry" />
        </mxCell>
        <mxCell id="183rZbsKnCli-wK0PXnV-8" value="任务规划性能评价" style="whiteSpace=wrap;html=1;rounded=0;fontSize=15;strokeWidth=2;labelBackgroundColor=none;fillColor=default;strokeColor=#d6b656;" vertex="1" parent="1">
          <mxGeometry x="980" y="645" width="150" height="50" as="geometry" />
        </mxCell>
        <mxCell id="183rZbsKnCli-wK0PXnV-13" value="&lt;font style=&quot;font-size: 15px;&quot;&gt;约束满足模型构建&lt;/font&gt;" style="rounded=0;whiteSpace=wrap;html=1;verticalAlign=top;fontSize=15;labelBackgroundColor=none;strokeWidth=2;fillColor=default;strokeColor=#84A3C2;" vertex="1" parent="1">
          <mxGeometry x="40" y="140" width="430" height="500" as="geometry" />
        </mxCell>
        <mxCell id="183rZbsKnCli-wK0PXnV-16" value="" style="edgeStyle=orthogonalEdgeStyle;rounded=0;orthogonalLoop=1;jettySize=auto;html=1;fontSize=15;labelBackgroundColor=none;fontColor=default;strokeColor=#09555B;" edge="1" parent="1" source="183rZbsKnCli-wK0PXnV-14" target="183rZbsKnCli-wK0PXnV-15">
          <mxGeometry relative="1" as="geometry" />
        </mxCell>
        <mxCell id="183rZbsKnCli-wK0PXnV-14" value="卫星任务规划问题描述" style="rounded=0;whiteSpace=wrap;html=1;fontSize=15;labelBackgroundColor=none;fillColor=#dae8fc;strokeColor=#6c8ebf;" vertex="1" parent="1">
          <mxGeometry x="60" y="190" width="160" height="40" as="geometry" />
        </mxCell>
        <mxCell id="183rZbsKnCli-wK0PXnV-19" value="" style="edgeStyle=orthogonalEdgeStyle;rounded=0;orthogonalLoop=1;jettySize=auto;html=1;fontSize=15;labelBackgroundColor=none;fontColor=default;strokeColor=#09555B;" edge="1" parent="1" source="183rZbsKnCli-wK0PXnV-15" target="183rZbsKnCli-wK0PXnV-18">
          <mxGeometry relative="1" as="geometry" />
        </mxCell>
        <mxCell id="183rZbsKnCli-wK0PXnV-30" value="" style="edgeStyle=orthogonalEdgeStyle;rounded=0;orthogonalLoop=1;jettySize=auto;html=1;endArrow=none;endFill=0;fontSize=15;labelBackgroundColor=none;fontColor=default;strokeColor=#09555B;" edge="1" parent="1" source="183rZbsKnCli-wK0PXnV-15" target="183rZbsKnCli-wK0PXnV-29">
          <mxGeometry relative="1" as="geometry">
            <Array as="points">
              <mxPoint x="260" y="319" />
              <mxPoint x="260" y="280" />
            </Array>
          </mxGeometry>
        </mxCell>
        <mxCell id="183rZbsKnCli-wK0PXnV-32" style="edgeStyle=orthogonalEdgeStyle;rounded=0;orthogonalLoop=1;jettySize=auto;html=1;entryX=0;entryY=0.5;entryDx=0;entryDy=0;endArrow=none;endFill=0;fontSize=15;labelBackgroundColor=none;fontColor=default;strokeColor=#09555B;" edge="1" parent="1" source="183rZbsKnCli-wK0PXnV-15" target="183rZbsKnCli-wK0PXnV-31">
          <mxGeometry relative="1" as="geometry">
            <Array as="points">
              <mxPoint x="260" y="319" />
              <mxPoint x="260" y="358" />
            </Array>
          </mxGeometry>
        </mxCell>
        <mxCell id="183rZbsKnCli-wK0PXnV-15" value="卫星与任务时空分布特征分析" style="whiteSpace=wrap;html=1;rounded=0;fontSize=15;labelBackgroundColor=none;fillColor=#dae8fc;strokeColor=#6c8ebf;" vertex="1" parent="1">
          <mxGeometry x="60" y="299" width="160" height="40" as="geometry" />
        </mxCell>
        <mxCell id="183rZbsKnCli-wK0PXnV-34" value="" style="edgeStyle=orthogonalEdgeStyle;rounded=0;orthogonalLoop=1;jettySize=auto;html=1;endArrow=none;endFill=0;fontSize=15;labelBackgroundColor=none;fontColor=default;strokeColor=#09555B;" edge="1" parent="1" source="183rZbsKnCli-wK0PXnV-18" target="183rZbsKnCli-wK0PXnV-33">
          <mxGeometry relative="1" as="geometry">
            <Array as="points">
              <mxPoint x="260" y="513" />
              <mxPoint x="260" y="450" />
            </Array>
          </mxGeometry>
        </mxCell>
        <mxCell id="183rZbsKnCli-wK0PXnV-38" style="edgeStyle=orthogonalEdgeStyle;rounded=0;orthogonalLoop=1;jettySize=auto;html=1;exitX=1;exitY=0.5;exitDx=0;exitDy=0;entryX=0;entryY=0.5;entryDx=0;entryDy=0;endArrow=none;endFill=0;fontSize=15;labelBackgroundColor=none;fontColor=default;strokeColor=#09555B;" edge="1" parent="1" source="183rZbsKnCli-wK0PXnV-18" target="183rZbsKnCli-wK0PXnV-37">
          <mxGeometry relative="1" as="geometry">
            <Array as="points">
              <mxPoint x="260" y="513" />
              <mxPoint x="260" y="590" />
            </Array>
          </mxGeometry>
        </mxCell>
        <mxCell id="183rZbsKnCli-wK0PXnV-39" style="edgeStyle=orthogonalEdgeStyle;rounded=0;orthogonalLoop=1;jettySize=auto;html=1;exitX=1;exitY=0.5;exitDx=0;exitDy=0;entryX=0;entryY=0.5;entryDx=0;entryDy=0;endArrow=none;endFill=0;fontSize=15;labelBackgroundColor=none;fontColor=default;strokeColor=#09555B;" edge="1" parent="1" source="183rZbsKnCli-wK0PXnV-18" target="183rZbsKnCli-wK0PXnV-35">
          <mxGeometry relative="1" as="geometry" />
        </mxCell>
        <mxCell id="183rZbsKnCli-wK0PXnV-18" value="约束满足模型构建" style="whiteSpace=wrap;html=1;rounded=0;fontSize=15;labelBackgroundColor=none;fillColor=#dae8fc;strokeColor=#6c8ebf;" vertex="1" parent="1">
          <mxGeometry x="60" y="493" width="160" height="40" as="geometry" />
        </mxCell>
        <mxCell id="183rZbsKnCli-wK0PXnV-29" value="卫星运动特性分析" style="whiteSpace=wrap;html=1;rounded=0;fontSize=15;labelBackgroundColor=none;fillColor=#dae8fc;strokeColor=#6c8ebf;" vertex="1" parent="1">
          <mxGeometry x="290" y="260" width="160" height="40" as="geometry" />
        </mxCell>
        <mxCell id="183rZbsKnCli-wK0PXnV-31" value="任务资源冲突程度分析" style="whiteSpace=wrap;html=1;rounded=0;fontSize=15;labelBackgroundColor=none;fillColor=#dae8fc;strokeColor=#6c8ebf;" vertex="1" parent="1">
          <mxGeometry x="290" y="338" width="160" height="40" as="geometry" />
        </mxCell>
        <mxCell id="183rZbsKnCli-wK0PXnV-33" value="确定问题决策变量" style="whiteSpace=wrap;html=1;rounded=0;fontSize=15;labelBackgroundColor=none;fillColor=#dae8fc;strokeColor=#6c8ebf;" vertex="1" parent="1">
          <mxGeometry x="290" y="415" width="160" height="40" as="geometry" />
        </mxCell>
        <mxCell id="183rZbsKnCli-wK0PXnV-35" value="确立时间、资源等约束" style="whiteSpace=wrap;html=1;rounded=0;fontSize=15;labelBackgroundColor=none;fillColor=#dae8fc;strokeColor=#6c8ebf;" vertex="1" parent="1">
          <mxGeometry x="290" y="493" width="160" height="40" as="geometry" />
        </mxCell>
        <mxCell id="183rZbsKnCli-wK0PXnV-37" value="确定任务规划问题的多个优化目标" style="whiteSpace=wrap;html=1;rounded=0;fontSize=15;labelBackgroundColor=none;fillColor=#dae8fc;strokeColor=#6c8ebf;" vertex="1" parent="1">
          <mxGeometry x="290" y="570" width="160" height="40" as="geometry" />
        </mxCell>
        <mxCell id="183rZbsKnCli-wK0PXnV-43" value="" style="edgeStyle=orthogonalEdgeStyle;rounded=0;orthogonalLoop=1;jettySize=auto;html=1;fontSize=15;labelBackgroundColor=none;fontColor=default;strokeColor=#09555B;" edge="1" parent="1" source="183rZbsKnCli-wK0PXnV-41" target="183rZbsKnCli-wK0PXnV-42">
          <mxGeometry relative="1" as="geometry" />
        </mxCell>
        <mxCell id="183rZbsKnCli-wK0PXnV-41" value="调度预处理&lt;br style=&quot;font-size: 15px;&quot;&gt;（基于启发式规则的快速调度算法生成优秀解）" style="rounded=0;whiteSpace=wrap;html=1;verticalAlign=middle;fontSize=15;labelBackgroundColor=none;fillColor=default;strokeColor=#84A3C2;strokeWidth=2;fontColor=default;" vertex="1" parent="1">
          <mxGeometry x="525" y="140" width="320" height="60" as="geometry" />
        </mxCell>
        <mxCell id="183rZbsKnCli-wK0PXnV-42" value="NSGAII_SHMCR" style="rounded=0;whiteSpace=wrap;html=1;verticalAlign=top;fontSize=15;labelBackgroundColor=none;fillColor=default;strokeColor=#84A3C2;strokeWidth=2;fontColor=default;" vertex="1" parent="1">
          <mxGeometry x="525" y="240" width="320" height="340" as="geometry" />
        </mxCell>
        <mxCell id="183rZbsKnCli-wK0PXnV-47" value="" style="edgeStyle=orthogonalEdgeStyle;rounded=0;orthogonalLoop=1;jettySize=auto;html=1;fontSize=15;labelBackgroundColor=none;fontColor=default;strokeColor=#09555B;" edge="1" parent="1" source="183rZbsKnCli-wK0PXnV-45" target="183rZbsKnCli-wK0PXnV-46">
          <mxGeometry relative="1" as="geometry" />
        </mxCell>
        <mxCell id="183rZbsKnCli-wK0PXnV-45" value="初始化种群&lt;br style=&quot;font-size: 15px;&quot;&gt;（引入预处理的优秀解）" style="rounded=0;whiteSpace=wrap;html=1;fontSize=15;labelBackgroundColor=none;fillColor=#dae8fc;strokeColor=#6c8ebf;" vertex="1" parent="1">
          <mxGeometry x="597.5" y="280" width="175" height="40" as="geometry" />
        </mxCell>
        <mxCell id="183rZbsKnCli-wK0PXnV-49" value="" style="edgeStyle=orthogonalEdgeStyle;rounded=0;orthogonalLoop=1;jettySize=auto;html=1;fontSize=15;labelBackgroundColor=none;fontColor=default;strokeColor=#09555B;" edge="1" parent="1" source="183rZbsKnCli-wK0PXnV-46" target="183rZbsKnCli-wK0PXnV-48">
          <mxGeometry relative="1" as="geometry" />
        </mxCell>
        <mxCell id="183rZbsKnCli-wK0PXnV-46" value="冲突消解机制统一评估可行解与不可行解" style="whiteSpace=wrap;html=1;rounded=0;fontSize=15;labelBackgroundColor=none;fillColor=#dae8fc;strokeColor=#6c8ebf;" vertex="1" parent="1">
          <mxGeometry x="597.5" y="348" width="175" height="40" as="geometry" />
        </mxCell>
        <mxCell id="183rZbsKnCli-wK0PXnV-53" value="" style="edgeStyle=orthogonalEdgeStyle;rounded=0;orthogonalLoop=1;jettySize=auto;html=1;fontSize=15;labelBackgroundColor=none;fontColor=default;strokeColor=#09555B;" edge="1" parent="1" source="183rZbsKnCli-wK0PXnV-48" target="183rZbsKnCli-wK0PXnV-52">
          <mxGeometry relative="1" as="geometry" />
        </mxCell>
        <mxCell id="183rZbsKnCli-wK0PXnV-48" value="遗传学操作&lt;br style=&quot;font-size: 15px;&quot;&gt;（交叉变异）" style="whiteSpace=wrap;html=1;rounded=0;fontSize=15;labelBackgroundColor=none;fillColor=#dae8fc;strokeColor=#6c8ebf;" vertex="1" parent="1">
          <mxGeometry x="597.5" y="420" width="175" height="40" as="geometry" />
        </mxCell>
        <mxCell id="183rZbsKnCli-wK0PXnV-61" style="edgeStyle=orthogonalEdgeStyle;rounded=0;orthogonalLoop=1;jettySize=auto;html=1;exitX=1;exitY=0.5;exitDx=0;exitDy=0;entryX=1;entryY=0.5;entryDx=0;entryDy=0;labelBackgroundColor=none;fontColor=default;fontSize=15;strokeColor=#09555B;" edge="1" parent="1" source="183rZbsKnCli-wK0PXnV-52" target="183rZbsKnCli-wK0PXnV-46">
          <mxGeometry relative="1" as="geometry">
            <Array as="points">
              <mxPoint x="800" y="530" />
              <mxPoint x="800" y="368" />
            </Array>
          </mxGeometry>
        </mxCell>
        <mxCell id="183rZbsKnCli-wK0PXnV-66" style="edgeStyle=orthogonalEdgeStyle;rounded=0;orthogonalLoop=1;jettySize=auto;html=1;exitX=0.5;exitY=1;exitDx=0;exitDy=0;entryX=0.5;entryY=0;entryDx=0;entryDy=0;labelBackgroundColor=none;fontColor=default;fontSize=15;strokeColor=#09555B;" edge="1" parent="1" source="183rZbsKnCli-wK0PXnV-52" target="183rZbsKnCli-wK0PXnV-59">
          <mxGeometry relative="1" as="geometry" />
        </mxCell>
        <mxCell id="183rZbsKnCli-wK0PXnV-52" value="是否终止" style="rhombus;whiteSpace=wrap;html=1;rounded=0;fontSize=15;labelBackgroundColor=none;fillColor=#dae8fc;strokeColor=#6c8ebf;" vertex="1" parent="1">
          <mxGeometry x="597.5" y="500" width="175" height="60" as="geometry" />
        </mxCell>
        <mxCell id="183rZbsKnCli-wK0PXnV-59" value="记录优化结果" style="whiteSpace=wrap;html=1;rounded=0;fontSize=15;labelBackgroundColor=none;fillColor=#dae8fc;strokeColor=#6c8ebf;" vertex="1" parent="1">
          <mxGeometry x="625" y="610" width="120" height="40" as="geometry" />
        </mxCell>
        <mxCell id="183rZbsKnCli-wK0PXnV-69" value="是" style="text;html=1;align=center;verticalAlign=middle;resizable=0;points=[];autosize=1;strokeColor=none;fillColor=none;fontSize=15;labelBackgroundColor=none;fontColor=#1A1A1A;" vertex="1" parent="1">
          <mxGeometry x="640" y="575" width="40" height="30" as="geometry" />
        </mxCell>
        <mxCell id="183rZbsKnCli-wK0PXnV-70" value="否" style="text;html=1;align=center;verticalAlign=middle;resizable=0;points=[];autosize=1;strokeColor=none;fillColor=none;fontSize=15;labelBackgroundColor=none;fontColor=#1A1A1A;" vertex="1" parent="1">
          <mxGeometry x="805" y="430" width="40" height="30" as="geometry" />
        </mxCell>
        <mxCell id="183rZbsKnCli-wK0PXnV-71" value="" style="endArrow=none;dashed=1;html=1;rounded=0;exitX=0;exitY=0;exitDx=0;exitDy=0;entryX=1;entryY=0;entryDx=0;entryDy=0;strokeColor=#09555B;strokeWidth=2;fontSize=15;labelBackgroundColor=none;fontColor=default;" edge="1" parent="1" source="183rZbsKnCli-wK0PXnV-6" target="183rZbsKnCli-wK0PXnV-64">
          <mxGeometry width="50" height="50" relative="1" as="geometry">
            <mxPoint x="580" y="480" as="sourcePoint" />
            <mxPoint x="630" y="430" as="targetPoint" />
          </mxGeometry>
        </mxCell>
        <mxCell id="183rZbsKnCli-wK0PXnV-72" value="" style="endArrow=none;dashed=1;html=1;rounded=0;entryX=0;entryY=1;entryDx=0;entryDy=0;exitX=1;exitY=1;exitDx=0;exitDy=0;strokeColor=#09555B;strokeWidth=2;fontSize=15;labelBackgroundColor=none;fontColor=default;" edge="1" parent="1" source="183rZbsKnCli-wK0PXnV-64" target="183rZbsKnCli-wK0PXnV-6">
          <mxGeometry width="50" height="50" relative="1" as="geometry">
            <mxPoint x="580" y="480" as="sourcePoint" />
            <mxPoint x="630" y="430" as="targetPoint" />
          </mxGeometry>
        </mxCell>
      </root>
    </mxGraphModel>
  </diagram>
</mxfile>
